<svg id="레이어_1" data-name="레이어 1" xmlns="http://www.w3.org/2000/svg" viewBox="0 0 38 38"><defs><style>.cls-1{fill:#fff;}.cls-2{fill:none;}.cls-3{fill:gray;}.cls-4{fill:#063585;}</style></defs><title>ex logo</title><circle class="cls-1" cx="19" cy="19" r="17"/><circle class="cls-2" cx="19" cy="19" r="16.88"/><path class="cls-3" d="M19,.75A18.25,18.25,0,1,1,.75,19,18.27,18.27,0,0,1,19,.75M19,.5A18.5,18.5,0,1,0,37.5,19,18.5,18.5,0,0,0,19,.5Z"/><rect class="cls-2" width="38" height="38"/><rect class="cls-2" width="38" height="38"/><path class="cls-4" d="M8.15,12.58,5.06,22.23s-.57,3.19,1.72,3.19h8.67l3.2-9.7-1.88.51,3.42-3.65H15.51L12,23.2H9.8s-.91,0-.57-1.15,3.08-9.47,3.08-9.47Z"/><path class="cls-4" d="M31.27,12.69c-2.06,0-9.82-.11-9.82-.11l1.14,3.77-1.49-.58-3.19,9.6H22l1.25-4h4.2a5.33,5.33,0,0,0,2.93-.85,4.18,4.18,0,0,0,1.67-2A14.15,14.15,0,0,0,33,15.77S33.32,12.69,31.27,12.69Zm-3.43,5.48c-.46,1-1.14,1-1.14,1H24.07l1.37-4.34h2.74C29.21,14.86,28.3,17.14,27.84,18.17Z"/></svg>