<svg id="레이어_1" data-name="레이어 1" xmlns="http://www.w3.org/2000/svg" viewBox="0 0 38 38"><defs><style>.cls-1{fill:#fff;}.cls-2{fill:gray;}.cls-3{fill:none;}.cls-4{fill:#f3ba2f;}</style></defs><title>ex logo</title><circle class="cls-1" cx="19" cy="19" r="17"/><path class="cls-2" d="M19,.75A18.25,18.25,0,1,1,.75,19,18.27,18.27,0,0,1,19,.75M19,.5A18.5,18.5,0,1,0,37.5,19,18.5,18.5,0,0,0,19,.5Z"/><circle class="cls-3" cx="19" cy="19" r="16.88"/><rect class="cls-3" width="38" height="38"/><rect class="cls-4" x="16.89" y="16.89" width="4.21" height="4.21" transform="translate(19 -7.87) rotate(45)"/><polygon class="cls-4" points="19 11.96 24.01 16.97 24.15 16.83 26.99 13.99 19 6 11.01 13.99 13.99 16.97 14.13 16.83 19 11.96"/><rect class="cls-4" x="6.87" y="16.89" width="4.21" height="4.21" transform="translate(-10.81 11.91) rotate(-45)"/><polygon class="cls-4" points="19 26.04 13.99 21.03 11.01 24.01 19 32 26.99 24.01 24.01 21.03 19 26.04"/><rect class="cls-4" x="27.08" y="16.83" width="4.02" height="4.21" transform="translate(-4.87 26.11) rotate(-45)"/></svg>